<svg xmlns="http://www.w3.org/2000/svg" version="1.1" xmlns:xlink="http://www.w3.org/1999/xlink" xmlns:svgjs="http://svgjs.dev/svgjs" width="1000" height="1000" viewBox="0 0 1000 1000"><rect width="1000" height="1000" fill="#ffffff"></rect><g transform="matrix(0.7,0,0,0.7,150,150)"><svg viewBox="0 0 280 280" data-background-color="#ffffff" preserveAspectRatio="xMidYMid meet" height="1000" width="1000" xmlns="http://www.w3.org/2000/svg" xmlns:xlink="http://www.w3.org/1999/xlink"><g id="tight-bounds" transform="matrix(1,0,0,1,0,0)"><svg viewBox="0 0 280 280" height="280" width="280"><g><svg viewBox="0 0 280 280" height="280" width="280"><g><svg viewBox="0 0 280 280" height="280" width="280"><g id="textblocktransform"><svg viewBox="0 0 280 280" height="280" width="280" id="textblock"><g><svg viewBox="0 0 280 280" height="280" width="280"><g transform="matrix(1,0,0,1,74.00336708925556,74.00336708925556)"><svg viewBox="0 0 131.99326582148888 131.99326582148888" height="131.99326582148888" width="131.99326582148888"><g><circle r="66" cx="65.99663291074444" cy="65.99663291074444" fill="#8d021f" data-fill-palette-color="accent"></circle></g></svg></g><g><path d="M29.637 110.893l-1.035 2.883-23.619-16.606 2.285-6.364 28.784 2.222-1.031 2.873-7.417-0.529-4.026 11.211zM8.977 93.903l-0.705 1.965 12.927 9.132 3.562-9.92z" fill="#ee3e38" data-fill-palette-color="primary"></path><path d="M52.431 53.042l-5.45 5.712 7.713 7.358-2.134 2.237-20.146-19.217 7.111-7.454c2.036-2.134 4.061-3.268 6.073-3.399 2.022-0.132 4.082 0.802 6.178 2.801v0c3.103 2.96 3.877 6.053 2.322 9.278v0l11.873 3.933-2.361 2.475zM45.003 56.867l5.003-5.245c2.608-2.734 2.5-5.449-0.326-8.144-2.825-2.695-5.551-2.666-8.177 0.088v0l-4.976 5.216z" fill="#ee3e38" data-fill-palette-color="primary"></path><path d="M92.116 38.499l-10.215-25.9 9.398-3.707c2.565-1.012 4.702-1.241 6.409-0.689 1.701 0.555 2.999 1.967 3.894 4.236v0c0.64 1.622 0.859 3 0.657 4.134-0.201 1.134-0.749 2.176-1.642 3.127v0c3.119-0.133 5.293 1.361 6.524 4.482v0c1.024 2.596 1.07 4.727 0.137 6.391-0.926 1.662-2.688 3.005-5.283 4.029v0zM97.004 22.814v0l-6.707 2.645 3.692 9.361 6.891-2.717c1.696-0.669 2.848-1.533 3.457-2.593 0.6-1.063 0.546-2.492-0.162-4.286v0c-0.375-0.95-0.868-1.678-1.482-2.184-0.619-0.504-1.283-0.777-1.99-0.819v0c-1.295-0.067-2.528 0.131-3.699 0.594zM92.182 11.483v0l-6.401 2.525 3.528 8.945 6.669-2.631c1.597-0.63 2.613-1.469 3.048-2.516 0.432-1.054 0.347-2.346-0.257-3.875-0.606-1.536-1.436-2.494-2.491-2.876-1.059-0.373-2.425-0.23-4.096 0.428z" fill="#ee3e38" data-fill-palette-color="primary"></path><path d="M144.296 27.841l-3.093 0.018-0.161-27.841 3.092-0.018z" fill="#ee3e38" data-fill-palette-color="primary"></path><path d="M190.668 12.688l-7.958-3.156 1.023-2.579 18.698 7.416-1.023 2.579-7.893-3.131-9.242 23.302-2.847-1.13z" fill="#ee3e38" data-fill-palette-color="primary"></path><path d="M228.554 68.847l-12.156-11.789 19.382-19.987 12.156 11.789-1.903 1.963-9.937-9.636-6.693 6.903 8.209 7.96-1.876 1.935-8.209-7.961-7.005 7.224 9.936 9.636z" fill="#ee3e38" data-fill-palette-color="primary"></path><path d="M258.433 101.264l-2.907-7.341-9.91 3.925-1.139-2.875 25.886-10.251 3.793 9.578c1.086 2.743 1.268 5.056 0.544 6.939-0.727 1.892-2.437 3.371-5.13 4.438v0c-3.988 1.579-7.12 0.987-9.397-1.776v0l-8.542 9.136-1.26-3.18zM258.069 92.917l2.668 6.739c1.391 3.513 3.902 4.551 7.532 3.113 3.63-1.438 4.745-3.925 3.344-7.462v0l-2.654-6.703z" fill="#ee3e38" data-fill-palette-color="primary"></path><path d="M10.704 183.63l-1.035-2.882 28.788-2.213 2.285 6.363-23.623 16.597-1.031-2.873 6.059-4.31-4.026-11.211zM37.453 183.597l-0.705-1.966-15.784 1.178 3.562 9.92z" fill="#ee3e38" data-fill-palette-color="primary"></path><path d="M53.3 233.853l-5.449-5.712-7.713 7.357-2.134-2.237 20.145-19.218 7.11 7.454c2.036 2.134 3.073 4.21 3.11 6.227 0.037 2.026-0.993 4.039-3.089 6.039v0c-3.103 2.96-6.229 3.588-9.377 1.882v0l-4.488 11.674-2.361-2.475zM49.829 226.253l5.004 5.245c2.608 2.734 5.325 2.753 8.15 0.059 2.825-2.695 2.925-5.419 0.298-8.173v0l-4.976-5.216z" fill="#ee3e38" data-fill-palette-color="primary"></path><path d="M84.735 267.94l10.215-25.9 9.398 3.706c2.565 1.012 4.283 2.302 5.154 3.871 0.864 1.567 0.849 3.484-0.046 5.754v0c-0.64 1.622-1.42 2.778-2.342 3.47-0.921 0.691-2.033 1.08-3.334 1.165v0c2.37 2.032 2.939 4.608 1.708 7.728v0c-1.024 2.596-2.445 4.184-4.262 4.764-1.812 0.582-4.016 0.362-6.612-0.662v0zM99.013 259.815v0l-6.706-2.645-3.692 9.361 6.891 2.718c1.696 0.669 3.128 0.824 4.296 0.464 1.164-0.368 2.1-1.449 2.807-3.243v0c0.375-0.95 0.511-1.819 0.408-2.607-0.108-0.791-0.407-1.443-0.895-1.957v0c-0.901-0.932-1.937-1.63-3.109-2.091zM103.224 248.243v0l-6.401-2.525-3.527 8.945 6.669 2.63c1.597 0.63 2.912 0.71 3.945 0.241 1.035-0.475 1.855-1.478 2.458-3.006 0.606-1.536 0.653-2.803 0.142-3.803-0.519-0.996-1.615-1.823-3.286-2.482z" fill="#ee3e38" data-fill-palette-color="primary"></path><path d="M144.179 280l-3.092-0.018 0.161-27.841 3.092 0.018z" fill="#ee3e38" data-fill-palette-color="primary"></path><path d="M179.601 247.133l-7.958 3.157-1.023-2.579 18.699-7.416 1.023 2.579-7.894 3.13 9.242 23.302-2.847 1.129z" fill="#ee3e38" data-fill-palette-color="primary"></path><path d="M242.559 233.32l-12.157 11.788-19.382-19.987 12.157-11.789 1.903 1.963-9.936 9.636 6.694 6.903 8.209-7.961 1.876 1.935-8.209 7.96 7.005 7.224 9.936-9.635z" fill="#ee3e38" data-fill-palette-color="primary"></path><path d="M257.316 186.018l-2.907 7.341 9.91 3.924-1.138 2.875-25.886-10.25 3.793-9.578c1.086-2.743 2.537-4.553 4.353-5.431 1.825-0.882 4.084-0.789 6.778 0.278v0c3.988 1.579 5.866 4.155 5.634 7.728v0l12.481-0.811-1.259 3.18zM251.866 192.352l2.669-6.74c1.391-3.513 0.272-5.988-3.358-7.425-3.63-1.438-6.146-0.387-7.547 3.15v0l-2.654 6.702z" fill="#ee3e38" data-fill-palette-color="primary"></path><path d="M4.076 143.862c0-5.874 4.762-10.635 10.635-10.635 5.874 0 10.635 4.762 10.635 10.635 0 5.874-4.762 10.635-10.635 10.636-5.874 0-10.635-4.762-10.635-10.636z" fill="#ee3e38" data-fill-palette-color="primary"></path><path d="M254.654 143.862c0-5.874 4.762-10.635 10.635-10.635 5.874 0 10.635 4.762 10.635 10.635 0 5.874-4.762 10.635-10.635 10.636-5.874 0-10.635-4.762-10.635-10.636z" fill="#ee3e38" data-fill-palette-color="primary"></path></g></svg></g></svg></g></svg></g></svg></g><defs></defs></svg><rect width="280" height="280" fill="none" stroke="none" visibility="hidden"></rect></g></svg></g></svg>